{
	"accessors" : 
	[
		{
			"bufferView" : 2,
			"byteOffset" : 0,
			"componentType" : 5126,
			"count" : 19620,
			"max" : 
			[
				1,
				0.835527777671814,
				0.3488648533821106,
				1
			],
			"min" : 
			[
				0.1939721554517746,
				0.08919350802898407,
				0.03994716703891754,
				1
			],
			"name" : "accessor_color_m0-PolyPaper12_-87466",
			"type" : "VEC4"
		},
		{
			"bufferView" : 2,
			"byteOffset" : 313920,
			"componentType" : 5126,
			"count" : 13872,
			"max" : 
			[
				0.3488648533821106,
				0.3488648533821106,
				0.3488648533821106,
				1
			],
			"min" : 
			[
				0.3488648533821106,
				0.3488648533821106,
				0.3488648533821106,
				1
			],
			"name" : "accessor_color_m1-PolyPaper22_-87472",
			"type" : "VEC4"
		},
		{
			"bufferView" : 0,
			"byteOffset" : 0,
			"componentType" : 5123,
			"count" : 27660,
			"max" : 
			[
				19619
			],
			"min" : 
			[
				0
			],
			"name" : "accessor_indices_0_m0-PolyPaper12_-87466",
			"type" : "SCALAR"
		},
		{
			"bufferView" : 0,
			"byteOffset" : 55320,
			"componentType" : 5123,
			"count" : 19584,
			"max" : 
			[
				13871
			],
			"min" : 
			[
				0
			],
			"name" : "accessor_indices_0_m1-PolyPaper22_-87472",
			"type" : "SCALAR"
		},
		{
			"bufferView" : 1,
			"byteOffset" : 235440,
			"componentType" : 5126,
			"count" : 19620,
			"max" : 
			[
				0.9998397999999999,
				0.9998693,
				0.9999974
			],
			"min" : 
			[
				-0.9998812,
				-0.9998693,
				-0.9999252
			],
			"name" : "accessor_normal_m0-PolyPaper12_-87466",
			"type" : "VEC3"
		},
		{
			"bufferView" : 1,
			"byteOffset" : 637344,
			"componentType" : 5126,
			"count" : 13872,
			"max" : 
			[
				0.9982457,
				0.9995484,
				0.9998055
			],
			"min" : 
			[
				-0.9982451,
				-0.9995485,
				-0.9998055
			],
			"name" : "accessor_normal_m1-PolyPaper22_-87472",
			"type" : "VEC3"
		},
		{
			"bufferView" : 1,
			"byteOffset" : 0,
			"componentType" : 5126,
			"count" : 19620,
			"max" : 
			[
				0.9649359,
				0.9515623,
				0.7027111
			],
			"min" : 
			[
				0.0425975,
				-0.545247,
				-0.8197379
			],
			"name" : "accessor_position_m0-PolyPaper12_-87466",
			"type" : "VEC3"
		},
		{
			"bufferView" : 1,
			"byteOffset" : 470880,
			"componentType" : 5126,
			"count" : 13872,
			"max" : 
			[
				0.9686062,
				0.2898826,
				0.6640928
			],
			"min" : 
			[
				0.05474963,
				-0.4486855,
				-0.7876236
			],
			"name" : "accessor_position_m1-PolyPaper22_-87472",
			"type" : "VEC3"
		}
	],
	"asset" : 
	{
		"copyright" : "Unknown",
		"generator" : "glTF 1-to-2 Upgrader for Google Blocks",
		"version" : "2.0"
	},
	"bufferViews" : 
	[
		{
			"buffer" : 0,
			"byteLength" : 94488,
			"byteOffset" : 0,
			"name" : "ushortBufferView",
			"target" : 34963
		},
		{
			"buffer" : 0,
			"byteLength" : 803808,
			"byteOffset" : 94488,
			"byteStride" : 12,
			"name" : "vec3BufferView",
			"target" : 34962
		},
		{
			"buffer" : 0,
			"byteLength" : 535872,
			"byteOffset" : 898296,
			"byteStride" : 16,
			"name" : "vec4BufferView",
			"target" : 34962
		}
	],
	"buffers" : 
	[
		{
			"byteLength" : 1434168,
			"name" : "model",
			"uri" : "model.bin"
		}
	],
	"materials" : 
	[
		{
			"alphaMode" : "OPAQUE",
			"doubleSided" : false,
			"name" : "BlocksPaper",
			"pbrMetallicRoughness" : 
			{
				"baseColorFactor" : 
				[
					1,
					1,
					1,
					1
				],
				"metallicFactor" : 0,
				"roughnessFactor" : 0.6
			}
		},
		{
			"alphaMode" : "BLEND",
			"doubleSided" : false,
			"name" : "BlocksGlass",
			"pbrMetallicRoughness" : 
			{
				"baseColorFactor" : 
				[
					0.2,
					0.2,
					1,
					0.3
				],
				"metallicFactor" : 1,
				"roughnessFactor" : 0.4
			}
		},
		{
			"alphaMode" : "OPAQUE",
			"doubleSided" : true,
			"name" : "BlocksGem",
			"pbrMetallicRoughness" : 
			{
				"baseColorFactor" : 
				[
					1,
					0.4,
					1,
					1
				],
				"metallicFactor" : 0,
				"roughnessFactor" : 0.1
			}
		}
	],
	"meshes" : 
	[
		{
			"name" : "mesh_m0-PolyPaper12_-87466",
			"primitives" : 
			[
				{
					"attributes" : 
					{
						"COLOR_0" : 0,
						"NORMAL" : 4,
						"POSITION" : 6
					},
					"indices" : 2,
					"material" : 0,
					"mode" : 4
				}
			]
		},
		{
			"name" : "mesh_m1-PolyPaper22_-87472",
			"primitives" : 
			[
				{
					"attributes" : 
					{
						"COLOR_0" : 1,
						"NORMAL" : 5,
						"POSITION" : 7
					},
					"indices" : 3,
					"material" : 0,
					"mode" : 4
				}
			]
		}
	],
	"nodes" : 
	[
		{
			"matrix" : 
			[
				1,
				0,
				0,
				0,
				0,
				1,
				0,
				0,
				0,
				0,
				1,
				0,
				0,
				0,
				0,
				1
			],
			"mesh" : 0,
			"name" : "node_MeshObject-1571205120-PolyPaper12"
		},
		{
			"matrix" : 
			[
				1,
				0,
				0,
				0,
				0,
				1,
				0,
				0,
				0,
				0,
				1,
				0,
				0,
				0,
				0,
				1
			],
			"mesh" : 1,
			"name" : "node_MeshObject-999126016-PolyPaper22"
		}
	],
	"scene" : 0,
	"scenes" : 
	[
		{
			"extras" : {},
			"name" : "defaultScene",
			"nodes" : 
			[
				0,
				1
			]
		}
	]
}